# xmcd CD database file
#
# Track frame offsets:
#	150
#	18104
#	39769
#	49105
#	62914
#	75626
#	86679
#	103504
#	123763
#	140632
#	150541
#	161008
#	172224
#	186869
#	197129
#	210742
#	228753
#	246984
#
# Disc length: 3354 seconds
#
# Revision: 0
# Processed by: cddbd v1.5.2PL0 Copyright (c) Steve Scherf et al.
# Submitted via: CDex 1.51
#
DISCID=ec0d1812
DTITLE=Soundtrack - Underbelly: Razor [CD2]
DYEAR=2011
DGENRE=Blues
TTITLE0=Kate and Tillly's Waltz - Burkhard Dallwitz
TTITLE1=Razors - Burkhard Dallwitz
TTITLE2=Kate and Tilly's Riot - Burkhard Dallwitz
TTITLE3=Razorhurst - Burkhard Dallwitz
TTITLE4=Eileen's Lament - Burkhard Dallwitz
TTITLE5=The Norman Bruhn Blues - Burkhard Dallwitz
TTITLE6=Danny Boy - The Battle Of Blood Alley - Pippa Grandison and Burkhard Dallwitz
TTITLE7=Send Me An Angel - Jessica Mauboy
TTITLE8=Sounds Of Then - Pippa Grandison
TTITLE9=Ain't She Sweet - Rob Mills
TTITLE10=Bad Boy For Love - Pippa Grandison
TTITLE11=Puttin' On The Style - Rob Mills
TTITLE12=The Nips Are Getting Bigger - Pippa Grandison
TTITLE13=The Bridge We;ve Been Waiting For - Jessica Mauboy
TTITLE14=The Boy's Light Up - Pippa Grandison
TTITLE15=We Can Get Together - Rob Mills
TTITLE16=Send Me An Angel - Pippa Grandison
TTITLE17=It's A Jungle Out There - Burkhard Dallwitz
EXTD=YEAR: 2011
EXTT0=
EXTT1=
EXTT2=
EXTT3=
EXTT4=
EXTT5=
EXTT6=
EXTT7=
EXTT8=
EXTT9=
EXTT10=
EXTT11=
EXTT12=
EXTT13=
EXTT14=
EXTT15=
EXTT16=
EXTT17=
PLAYORDER=
